<svg xmlns="http://www.w3.org/2000/svg" viewBox="0 0 640 180" shape-rendering="crispEdges" role="img" aria-label="Ilustración pixel art de playa tropical">

  <!-- SKY -->
  <rect x="0"   y="0"   width="640" height="180" fill="#87CEEB"/>
  <rect x="0"   y="0"   width="640" height="35"  fill="#B3E8FF" opacity="0.55"/>
  <rect x="0"   y="105" width="640" height="15"  fill="#5BAED0" opacity="0.35"/>

  <!-- SUN (top-right) — rays then body -->
  <rect x="574" y="4"  width="10" height="10" fill="#FFB300"/>
  <rect x="584" y="4"  width="10" height="10" fill="#FFB300"/>
  <rect x="564" y="14" width="10" height="10" fill="#FFB300"/>
  <rect x="614" y="19" width="10" height="10" fill="#FFB300"/>
  <rect x="549" y="29" width="10" height="10" fill="#FFB300"/>
  <rect x="619" y="34" width="10" height="10" fill="#FFB300"/>
  <rect x="549" y="49" width="10" height="10" fill="#FFB300"/>
  <rect x="619" y="49" width="10" height="10" fill="#FFB300"/>
  <rect x="554" y="64" width="10" height="10" fill="#FFB300"/>
  <rect x="609" y="64" width="10" height="10" fill="#FFB300"/>
  <rect x="559" y="14" width="60" height="10" fill="#FFD700"/>
  <rect x="554" y="24" width="70" height="10" fill="#FFD700"/>
  <rect x="554" y="34" width="70" height="10" fill="#FFD700"/>
  <rect x="554" y="44" width="70" height="10" fill="#FFD700"/>
  <rect x="554" y="54" width="70" height="10" fill="#FFD700"/>
  <rect x="559" y="64" width="60" height="10" fill="#FFD700"/>
  <rect x="559" y="19" width="15" height="10" fill="#FFEE58" opacity="0.75"/>

  <!-- CLOUD 1 (left) -->
  <rect x="75"  y="14" width="60" height="10" fill="white"/>
  <rect x="55"  y="24" width="110" height="10" fill="white"/>
  <rect x="45"  y="34" width="130" height="10" fill="white"/>
  <rect x="55"  y="44" width="110" height="10" fill="white"/>
  <rect x="45"  y="44" width="130" height="5"  fill="#D6EEF8"/>

  <!-- CLOUD 2 (center) -->
  <rect x="320" y="4"  width="55"  height="10" fill="white"/>
  <rect x="305" y="14" width="85"  height="10" fill="white"/>
  <rect x="295" y="24" width="105" height="10" fill="white"/>
  <rect x="305" y="34" width="85"  height="10" fill="white"/>
  <rect x="295" y="34" width="105" height="5"  fill="#D6EEF8"/>

  <!-- SEAGULLS -->
  <rect x="205" y="48" width="10" height="5" fill="#455A64"/>
  <rect x="215" y="43" width="5"  height="5" fill="#455A64"/>
  <rect x="220" y="48" width="10" height="5" fill="#455A64"/>
  <rect x="242" y="38" width="8"  height="4" fill="#546E7A"/>
  <rect x="250" y="34" width="4"  height="4" fill="#546E7A"/>
  <rect x="254" y="38" width="8"  height="4" fill="#546E7A"/>

  <!-- ═══ PALM TREE LEFT ═══ -->
  <!-- trunk -->
  <rect x="58"  y="40"  width="10" height="10" fill="#5D4037"/>
  <rect x="63"  y="50"  width="10" height="15" fill="#6D4C41"/>
  <rect x="63"  y="65"  width="10" height="15" fill="#5D4037"/>
  <rect x="55"  y="80"  width="10" height="15" fill="#6D4C41"/>
  <rect x="55"  y="95"  width="10" height="15" fill="#5D4037"/>
  <rect x="55"  y="110" width="10" height="15" fill="#6D4C41"/>
  <rect x="55"  y="125" width="10" height="25" fill="#5D4037"/>
  <!-- leaves: up -->
  <rect x="48"  y="20"  width="30" height="10" fill="#4CAF50"/>
  <rect x="53"  y="10"  width="20" height="10" fill="#66BB6A"/>
  <!-- leaves: up-right -->
  <rect x="63"  y="15"  width="65" height="10" fill="#43A047"/>
  <rect x="73"  y="25"  width="55" height="10" fill="#388E3C"/>
  <rect x="83"  y="35"  width="40" height="10" fill="#2E7D32"/>
  <!-- leaves: right -->
  <rect x="68"  y="45"  width="75" height="10" fill="#43A047"/>
  <rect x="78"  y="55"  width="60" height="10" fill="#388E3C"/>
  <!-- leaves: down-right -->
  <rect x="63"  y="58"  width="65" height="10" fill="#388E3C"/>
  <rect x="73"  y="68"  width="50" height="10" fill="#2E7D32"/>
  <!-- leaves: left -->
  <rect x="0"   y="45"  width="55" height="10" fill="#388E3C"/>
  <rect x="5"   y="55"  width="45" height="10" fill="#2E7D32"/>
  <!-- leaves: up-left -->
  <rect x="10"  y="25"  width="48" height="10" fill="#43A047"/>
  <rect x="20"  y="15"  width="33" height="10" fill="#4CAF50"/>
  <!-- coconuts -->
  <rect x="60"  y="48"  width="10" height="10" fill="#3E2723"/>
  <rect x="72"  y="55"  width="9"  height="9"  fill="#4E342E"/>

  <!-- ═══ UMBRELLA CENTER ═══ -->
  <!-- pole -->
  <rect x="317" y="97"  width="8"  height="53" fill="#795548"/>
  <!-- canopy peak -->
  <rect x="303" y="67"  width="36" height="10" fill="#E53935"/>
  <rect x="313" y="67"  width="8"  height="10" fill="white"/>
  <rect x="315" y="62"  width="12" height="6"  fill="#E53935"/>
  <rect x="318" y="58"  width="6"  height="5"  fill="#FFEB3B"/>
  <!-- canopy mid -->
  <rect x="278" y="77"  width="86" height="10" fill="#E53935"/>
  <rect x="288" y="77"  width="10" height="10" fill="white"/>
  <rect x="308" y="77"  width="10" height="10" fill="white"/>
  <rect x="328" y="77"  width="10" height="10" fill="white"/>
  <rect x="348" y="77"  width="10" height="10" fill="white"/>
  <!-- canopy base -->
  <rect x="258" y="87"  width="126" height="10" fill="#E53935"/>
  <rect x="268" y="87"  width="10" height="10" fill="white"/>
  <rect x="288" y="87"  width="10" height="10" fill="white"/>
  <rect x="308" y="87"  width="10" height="10" fill="white"/>
  <rect x="328" y="87"  width="10" height="10" fill="white"/>
  <rect x="348" y="87"  width="10" height="10" fill="white"/>
  <rect x="368" y="87"  width="10" height="10" fill="white"/>
  <!-- fringe -->
  <rect x="258" y="97"  width="126" height="4"  fill="#B71C1C" opacity="0.55"/>
  <!-- towel / chair -->
  <rect x="277" y="148" width="88"  height="12" fill="#FF8F00"/>
  <rect x="277" y="148" width="12"  height="12" fill="#E65100"/>
  <rect x="301" y="148" width="12"  height="12" fill="#E65100"/>
  <rect x="325" y="148" width="12"  height="12" fill="#E65100"/>
  <rect x="349" y="148" width="10"  height="12" fill="#E65100"/>

  <!-- ═══ PALM TREE RIGHT ═══ -->
  <!-- trunk -->
  <rect x="574" y="40"  width="10" height="10" fill="#5D4037"/>
  <rect x="569" y="50"  width="10" height="15" fill="#6D4C41"/>
  <rect x="569" y="65"  width="10" height="15" fill="#5D4037"/>
  <rect x="577" y="80"  width="10" height="15" fill="#6D4C41"/>
  <rect x="577" y="95"  width="10" height="15" fill="#5D4037"/>
  <rect x="577" y="110" width="10" height="15" fill="#6D4C41"/>
  <rect x="577" y="125" width="10" height="25" fill="#5D4037"/>
  <!-- leaves: up -->
  <rect x="564" y="20"  width="30" height="10" fill="#4CAF50"/>
  <rect x="569" y="10"  width="20" height="10" fill="#66BB6A"/>
  <!-- leaves: up-left -->
  <rect x="514" y="15"  width="55" height="10" fill="#43A047"/>
  <rect x="524" y="25"  width="45" height="10" fill="#388E3C"/>
  <rect x="534" y="35"  width="30" height="10" fill="#2E7D32"/>
  <!-- leaves: left -->
  <rect x="499" y="45"  width="70" height="10" fill="#43A047"/>
  <rect x="509" y="55"  width="55" height="10" fill="#388E3C"/>
  <!-- leaves: down-left -->
  <rect x="514" y="58"  width="55" height="10" fill="#388E3C"/>
  <rect x="524" y="68"  width="45" height="10" fill="#2E7D32"/>
  <!-- leaves: right -->
  <rect x="579" y="45"  width="61" height="10" fill="#388E3C"/>
  <rect x="584" y="55"  width="51" height="10" fill="#2E7D32"/>
  <!-- leaves: up-right -->
  <rect x="579" y="25"  width="51" height="10" fill="#43A047"/>
  <rect x="589" y="15"  width="36" height="10" fill="#4CAF50"/>
  <!-- coconuts -->
  <rect x="571" y="48"  width="10" height="10" fill="#3E2723"/>
  <rect x="561" y="55"  width="9"  height="9"  fill="#4E342E"/>

  <!-- ═══ OCEAN ═══ -->
  <rect x="0"   y="120" width="640" height="30" fill="#1565C0"/>
  <rect x="0"   y="140" width="640" height="10" fill="#1976D2"/>
  <!-- wave caps -->
  <rect x="0"   y="120" width="45" height="10" fill="#42A5F5"/>
  <rect x="55"  y="120" width="45" height="10" fill="#42A5F5"/>
  <rect x="110" y="120" width="45" height="10" fill="#42A5F5"/>
  <rect x="165" y="120" width="45" height="10" fill="#42A5F5"/>
  <rect x="220" y="120" width="45" height="10" fill="#42A5F5"/>
  <rect x="275" y="120" width="45" height="10" fill="#42A5F5"/>
  <rect x="330" y="120" width="45" height="10" fill="#42A5F5"/>
  <rect x="385" y="120" width="45" height="10" fill="#42A5F5"/>
  <rect x="440" y="120" width="45" height="10" fill="#42A5F5"/>
  <rect x="495" y="120" width="45" height="10" fill="#42A5F5"/>
  <rect x="550" y="120" width="45" height="10" fill="#42A5F5"/>
  <rect x="605" y="120" width="35" height="10" fill="#42A5F5"/>
  <!-- wave foam -->
  <rect x="45"  y="120" width="10" height="6"  fill="#E3F2FD"/>
  <rect x="100" y="120" width="10" height="6"  fill="#E3F2FD"/>
  <rect x="155" y="120" width="10" height="6"  fill="#E3F2FD"/>
  <rect x="210" y="120" width="10" height="6"  fill="#E3F2FD"/>
  <rect x="265" y="120" width="10" height="6"  fill="#E3F2FD"/>
  <rect x="320" y="120" width="10" height="6"  fill="#E3F2FD"/>
  <rect x="375" y="120" width="10" height="6"  fill="#E3F2FD"/>
  <rect x="430" y="120" width="10" height="6"  fill="#E3F2FD"/>
  <rect x="485" y="120" width="10" height="6"  fill="#E3F2FD"/>
  <rect x="540" y="120" width="10" height="6"  fill="#E3F2FD"/>
  <rect x="595" y="120" width="10" height="6"  fill="#E3F2FD"/>
  <!-- second wave -->
  <rect x="20"  y="140" width="30" height="5"  fill="#42A5F5" opacity="0.55"/>
  <rect x="90"  y="140" width="35" height="5"  fill="#42A5F5" opacity="0.55"/>
  <rect x="165" y="140" width="30" height="5"  fill="#42A5F5" opacity="0.55"/>
  <rect x="240" y="140" width="35" height="5"  fill="#42A5F5" opacity="0.55"/>
  <rect x="315" y="140" width="30" height="5"  fill="#42A5F5" opacity="0.55"/>
  <rect x="390" y="140" width="35" height="5"  fill="#42A5F5" opacity="0.55"/>
  <rect x="465" y="140" width="30" height="5"  fill="#42A5F5" opacity="0.55"/>
  <rect x="540" y="140" width="35" height="5"  fill="#42A5F5" opacity="0.55"/>
  <!-- shoreline foam -->
  <rect x="0"   y="117" width="640" height="4"  fill="#E8F5FF" opacity="0.75"/>

  <!-- ═══ SAND ═══ -->
  <rect x="0"   y="150" width="640" height="30" fill="#DEB887"/>
  <rect x="0"   y="172" width="640" height="8"  fill="#C8A065"/>
  <rect x="0"   y="150" width="640" height="7"  fill="#EDD9A3" opacity="0.65"/>
  <!-- sand dots -->
  <rect x="122" y="160" width="7"  height="5"  fill="#C8A065"/>
  <rect x="218" y="165" width="6"  height="4"  fill="#BFA060"/>
  <rect x="422" y="157" width="7"  height="5"  fill="#C8A065"/>
  <rect x="512" y="164" width="8"  height="5"  fill="#BFA060"/>
  <!-- shell 1 (peach) -->
  <rect x="148" y="158" width="14" height="9"  fill="#FFCCBC"/>
  <rect x="151" y="153" width="8"  height="6"  fill="#FFAB91"/>
  <rect x="154" y="166" width="3"  height="4"  fill="#FF8A65"/>
  <!-- shell 2 (lavender) -->
  <rect x="432" y="162" width="12" height="8"  fill="#E1BEE7"/>
  <rect x="435" y="157" width="6"  height="5"  fill="#CE93D8"/>
  <!-- starfish -->
  <rect x="378" y="159" width="6"  height="6"  fill="#FF7043"/>
  <rect x="374" y="162" width="14" height="3"  fill="#FF7043"/>
  <rect x="380" y="156" width="3"  height="13" fill="#FF7043"/>
  <rect x="375" y="157" width="4"  height="4"  fill="#FF7043"/>
  <rect x="383" y="157" width="4"  height="4"  fill="#FF7043"/>
  <rect x="375" y="166" width="4"  height="4"  fill="#FF7043"/>
  <rect x="383" y="166" width="4"  height="4"  fill="#FF7043"/>

</svg>
